<svg width="24" height="25" viewBox="0 0 24 25" fill="none" xmlns="http://www.w3.org/2000/svg">
<path d="M12 22.5C13.3135 22.5017 14.6143 22.2438 15.8278 21.7412C17.0413 21.2385 18.1435 20.501 19.071 19.571C20.001 18.6435 20.7385 17.5413 21.2412 16.3278C21.7438 15.1143 22.0017 13.8135 22 12.5C22.0017 11.1865 21.7438 9.8857 21.2411 8.67222C20.7385 7.45875 20.001 6.35656 19.071 5.42901C18.1435 4.49902 17.0413 3.76151 15.8278 3.25885C14.6143 2.75619 13.3135 2.49831 12 2.50001C10.6865 2.49833 9.3857 2.75623 8.17222 3.25889C6.95875 3.76154 5.85656 4.49904 4.92901 5.42901C3.99904 6.35656 3.26154 7.45875 2.75889 8.67222C2.25623 9.8857 1.99833 11.1865 2.00001 12.5C1.99831 13.8135 2.25619 15.1143 2.75885 16.3278C3.26151 17.5413 3.99902 18.6435 4.92901 19.571C5.85656 20.501 6.95875 21.2385 8.17222 21.7411C9.3857 22.2438 10.6865 22.5017 12 22.5V22.5Z" stroke="#FF8C68" stroke-width="2" stroke-linejoin="round"/>
<path d="M11.2368 7.5H12.3928V12.333L12.156 14.7844H11.4736L11.2368 12.333V7.5ZM11 16.6089C11 16.3582 11.0696 16.1632 11.2089 16.0239C11.3575 15.8754 11.5525 15.8011 11.7939 15.8011C12.0446 15.8011 12.2442 15.8754 12.3928 16.0239C12.5414 16.1632 12.6156 16.3582 12.6156 16.6089C12.6156 16.8503 12.5414 17.0453 12.3928 17.1939C12.2442 17.3425 12.0446 17.4167 11.7939 17.4167C11.5525 17.4167 11.3575 17.3425 11.2089 17.1939C11.0696 17.0453 11 16.8503 11 16.6089Z" fill="#FF8C68"/>
</svg>
