<svg width="41" height="32" viewBox="0 0 41 32" fill="none" xmlns="http://www.w3.org/2000/svg">
<path d="M3.55469 5.33594L4.8804 5.60108C5.94132 5.81326 6.73932 6.69332 6.84697 7.76988L7.03913 9.69149M7.03913 9.69149L8.27228 19.9677C8.42074 21.2048 9.47025 22.1359 10.7163 22.1359H21.9691C23.9458 22.1359 25.6688 20.7907 26.1482 18.873L27.5643 13.2088C28.0109 11.4222 26.6596 9.69149 24.818 9.69149H7.03913Z" stroke="#9495A9" stroke-width="1.84615" stroke-linecap="round"/>
<circle cx="11.644" cy="26.4917" r="1.86667" fill="#9495A9"/>
<circle cx="22.8432" cy="26.4917" r="1.86667" fill="#9495A9"/>
<rect x="23" width="18" height="14" rx="7" fill="#E2383E"/>
<path d="M30.1731 9.9H31.5631V5.95L31.7131 5.27L31.2331 5.86L30.3431 6.47L29.7931 5.72L32.0731 3.88H32.8031V9.9H34.1631V11H30.1731V9.9Z" fill="white"/>
</svg>
