<svg width="12" height="20" viewBox="0 0 12 20" fill="none" xmlns="http://www.w3.org/2000/svg">
<path fill-rule="evenodd" clip-rule="evenodd" d="M11.333 5.16132C11.333 8.00662 8.93564 10.3211 5.98642 10.3211C3.03784 10.3211 0.639813 8.00662 0.639813 5.16132C0.639813 2.31509 3.03784 0 5.98642 0C8.93564 0 11.333 2.31509 11.333 5.16132ZM11.268 13.2925C10.3012 13.8786 9.25163 14.2943 8.1633 14.5336L11.1522 17.419C11.7645 18.0088 11.7645 18.9667 11.1522 19.5572C10.5405 20.1476 9.54914 20.1476 8.93812 19.5572L5.99945 16.7218L3.06335 19.5572C2.75719 19.8521 2.35603 19.9997 1.95487 19.9997C1.55435 19.9997 1.15382 19.8521 0.847672 19.5572C0.23601 18.9667 0.236011 18.0095 0.847033 17.419L3.83624 14.5336C2.74792 14.2943 1.6983 13.878 0.731546 13.2925C-8.04663e-05 12.8472 -0.219857 11.9143 0.241129 11.2075C0.700835 10.4997 1.66759 10.2866 2.4005 10.7319C4.5893 12.061 7.40896 12.0613 9.59904 10.7319C10.332 10.2866 11.2984 10.4997 11.7591 11.2075C12.22 11.9137 11.9996 12.8472 11.268 13.2925ZM5.99991 7C7.10447 7 7.99991 6.10457 7.99991 5C7.99991 3.89543 7.10447 3 5.99991 3C4.89534 3 3.99991 3.89543 3.99991 5C3.99991 6.10457 4.89534 7 5.99991 7Z" fill="#9495A9"/>
</svg>
