<svg width="12" height="12" viewBox="0 0 12 12" fill="none" xmlns="http://www.w3.org/2000/svg">
<path d="M11.6569 1.8181C12.0644 1.4106 12.0644 0.749905 11.6569 0.342401C11.2494 -0.0651026 10.5887 -0.0651025 10.1812 0.342401L6 4.52355L1.81885 0.3424C1.41134 -0.065103 0.75065 -0.0651035 0.343146 0.3424C-0.0643575 0.749904 -0.0643571 1.4106 0.343146 1.8181L4.5243 5.99925L0.343145 10.1804C-0.0643579 10.5879 -0.0643584 11.2486 0.343145 11.6561C0.750649 12.0636 1.41134 12.0636 1.81885 11.6561L6 7.47496L10.1812 11.6561C10.5887 12.0636 11.2493 12.0636 11.6569 11.6561C12.0644 11.2486 12.0644 10.5879 11.6569 10.1804L7.4757 5.99925L11.6569 1.8181Z" fill="white"/>
</svg>
