<svg width="16" height="16" viewBox="0 0 16 16" fill="none" xmlns="http://www.w3.org/2000/svg">
<path d="M0.792969 11.7575C0.792969 11.3198 0.904527 10.8893 1.11711 10.5066L5.57543 2.48166C5.97062 1.77032 6.65824 1.26839 7.45619 1.1088V1.1088C7.81529 1.03698 8.18506 1.03698 8.54416 1.1088V1.1088C9.34211 1.26839 10.0297 1.77032 10.4249 2.48166L14.8832 10.5066C15.0958 10.8893 15.2074 11.3198 15.2074 11.7575V11.7575C15.2074 13.1801 14.0542 14.3333 12.6316 14.3333H3.36875C1.94619 14.3333 0.792969 13.1801 0.792969 11.7575V11.7575Z" stroke="#E2383E"/>
<path d="M8 5.32411L8 9.64844" stroke="#E2383E" stroke-linecap="round" stroke-linejoin="round"/>
<path d="M8 11.4502L8 11.8105" stroke="#E2383E" stroke-linecap="round" stroke-linejoin="round"/>
</svg>
