<svg width="24" height="25" viewBox="0 0 24 25" fill="none" xmlns="http://www.w3.org/2000/svg">
<path d="M3.26547 7.51281C2.3755 6.32619 3.22219 4.63281 4.70547 4.63281H19.2949C20.7782 4.63281 21.6249 6.32619 20.7349 7.51281L20.2634 8.14158C19.6143 9.00706 19.2634 10.0597 19.2634 11.1416V20.0012C19.2634 22.2104 17.4725 24.0012 15.2634 24.0012H8.73705C6.52791 24.0012 4.73705 22.2104 4.73705 20.0012V11.1416C4.73705 10.0597 4.38616 9.00706 3.73705 8.14158L3.26547 7.51281Z" stroke="#9495A9" stroke-width="1.5"/>
<path d="M14.4219 17.9507L14.4219 10.6875" stroke="#9495A9" stroke-width="1.5" stroke-linecap="round" stroke-linejoin="round"/>
<path d="M9.57812 17.9507L9.57812 10.6875" stroke="#9495A9" stroke-width="1.5" stroke-linecap="round" stroke-linejoin="round"/>
<path d="M16.8405 4.63158L16.0858 2.36754C15.8136 1.55086 15.0493 1 14.1884 1H9.80829C8.94743 1 8.18316 1.55086 7.91093 2.36755L7.15625 4.63158" stroke="#9495A9" stroke-width="1.5" stroke-linecap="round"/>
</svg>
