<svg width="47" height="32" viewBox="0 0 47 32" fill="none" xmlns="http://www.w3.org/2000/svg">
<path d="M5.62389 17.7613L13.3498 25.7199C14.8001 27.2139 17.1981 27.2139 18.6484 25.7199L26.3744 17.7613C29.1333 14.9193 29.1333 10.3114 26.3744 7.46941C23.6154 4.62738 19.1423 4.62739 16.3834 7.46941V7.46941C16.173 7.6861 15.8252 7.6861 15.6149 7.46941V7.46941C12.8559 4.62739 8.38282 4.62738 5.62389 7.46941C2.86495 10.3114 2.86496 14.9193 5.62389 17.7613Z" stroke="#9495A9" stroke-width="1.84615"/>
<rect x="17" width="30" height="14" rx="7" fill="#E2383E"/>
<path d="M25.8993 10.04C26.3126 10.04 26.6259 9.93 26.8393 9.71C27.0593 9.49 27.1693 9.22333 27.1693 8.91C27.1693 8.53 27.0559 8.25 26.8293 8.07C26.6026 7.89 26.2459 7.8 25.7593 7.8H25.0393V7.11L26.2493 5.46L26.8193 5.01L26.0293 5.1H24.3493V4H28.1693V4.71L26.7593 6.6L26.3193 6.87V6.92L26.7393 6.86C26.9726 6.88 27.1926 6.93333 27.3993 7.02C27.6126 7.10667 27.7959 7.23333 27.9493 7.4C28.1093 7.56 28.2359 7.76 28.3293 8C28.4226 8.24 28.4693 8.51667 28.4693 8.83C28.4693 9.22333 28.4026 9.56333 28.2693 9.85C28.1426 10.1367 27.9626 10.3767 27.7293 10.57C27.5026 10.7633 27.2359 10.9067 26.9293 11C26.6226 11.0933 26.2926 11.14 25.9393 11.14C25.6459 11.14 25.3426 11.1133 25.0293 11.06C24.7159 11.0067 24.4626 10.93 24.2693 10.83L24.6193 9.75C24.7926 9.83667 24.9826 9.90667 25.1893 9.96C25.4026 10.0133 25.6393 10.04 25.8993 10.04ZM33.9131 5.71C33.9131 6.05 33.8498 6.39333 33.7231 6.74C33.6031 7.08667 33.4464 7.42667 33.2531 7.76C33.0664 8.09333 32.8564 8.41667 32.6231 8.73C32.3964 9.03667 32.1731 9.32 31.9531 9.58L31.4231 9.99V10.04L32.1431 9.9H34.0631V11H29.8531V10.33C30.0131 10.1633 30.1931 9.97 30.3931 9.75C30.5931 9.52333 30.7931 9.28667 30.9931 9.04C31.1998 8.78667 31.3998 8.52667 31.5931 8.26C31.7864 7.99333 31.9598 7.72667 32.1131 7.46C32.2664 7.18667 32.3864 6.92333 32.4731 6.67C32.5664 6.41667 32.6131 6.17667 32.6131 5.95C32.6131 5.67667 32.5331 5.45333 32.3731 5.28C32.2198 5.1 31.9731 5.01 31.6331 5.01C31.4198 5.01 31.1998 5.05667 30.9731 5.15C30.7531 5.23667 30.5664 5.35 30.4131 5.49L29.8931 4.57C30.1531 4.35667 30.4464 4.18667 30.7731 4.06C31.1064 3.92667 31.4964 3.86 31.9431 3.86C32.2298 3.86 32.4931 3.9 32.7331 3.98C32.9731 4.06 33.1798 4.17667 33.3531 4.33C33.5264 4.48333 33.6631 4.67667 33.7631 4.91C33.8631 5.13667 33.9131 5.40333 33.9131 5.71ZM39.5869 5.71C39.5869 6.05 39.5236 6.39333 39.3969 6.74C39.2769 7.08667 39.1202 7.42667 38.9269 7.76C38.7402 8.09333 38.5302 8.41667 38.2969 8.73C38.0702 9.03667 37.8469 9.32 37.6269 9.58L37.0969 9.99V10.04L37.8169 9.9H39.7369V11H35.5269V10.33C35.6869 10.1633 35.8669 9.97 36.0669 9.75C36.2669 9.52333 36.4669 9.28667 36.6669 9.04C36.8736 8.78667 37.0736 8.52667 37.2669 8.26C37.4602 7.99333 37.6336 7.72667 37.7869 7.46C37.9402 7.18667 38.0602 6.92333 38.1469 6.67C38.2402 6.41667 38.2869 6.17667 38.2869 5.95C38.2869 5.67667 38.2069 5.45333 38.0469 5.28C37.8936 5.1 37.6469 5.01 37.3069 5.01C37.0936 5.01 36.8736 5.05667 36.6469 5.15C36.4269 5.23667 36.2402 5.35 36.0869 5.49L35.5669 4.57C35.8269 4.35667 36.1202 4.18667 36.4469 4.06C36.7802 3.92667 37.1702 3.86 37.6169 3.86C37.9036 3.86 38.1669 3.9 38.4069 3.98C38.6469 4.06 38.8536 4.17667 39.0269 4.33C39.2002 4.48333 39.3369 4.67667 39.4369 4.91C39.5369 5.13667 39.5869 5.40333 39.5869 5.71Z" fill="white"/>
</svg>
