<svg width="24" height="24" viewBox="0 0 24 24" fill="none" xmlns="http://www.w3.org/2000/svg">
<path d="M3.48828 1.5957H20.5153V20.9936C20.5153 21.8189 19.572 22.289 18.9131 21.792L16.8091 20.205C16.4776 19.955 16.0262 19.9358 15.6747 20.1567L13.0661 21.7963C12.4155 22.2053 11.5881 22.2053 10.9375 21.7963L8.32885 20.1567C7.97737 19.9358 7.52595 19.955 7.19452 20.205L5.09046 21.792C4.43157 22.289 3.48828 21.8189 3.48828 20.9936V1.5957Z" stroke="#1B1D1F" stroke-width="1.5"/>
<path d="M8.35156 8.72934H12.0002" stroke="#1B1D1F" stroke-width="1.5" stroke-linecap="round" stroke-linejoin="round"/>
<path d="M1.05469 1.59458H22.9466" stroke="#1B1D1F" stroke-width="1.5" stroke-linecap="round" stroke-linejoin="round"/>
<path d="M8.35156 13.4872H12.0002" stroke="#1B1D1F" stroke-width="1.5" stroke-linecap="round" stroke-linejoin="round"/>
<path d="M15.6484 8.72934H16.2565" stroke="#1B1D1F" stroke-width="1.5" stroke-linecap="round" stroke-linejoin="round"/>
<path d="M15.6484 13.4872H16.2565" stroke="#1B1D1F" stroke-width="1.5" stroke-linecap="round" stroke-linejoin="round"/>
</svg>
