<svg width="32" height="32" viewBox="0 0 32 32" fill="none" xmlns="http://www.w3.org/2000/svg">
<path d="M3.55469 15.3515C3.55469 13.8019 4.28426 12.3428 5.52392 11.4131L13.0453 5.77202C14.7957 4.4592 17.2026 4.4592 18.953 5.77203L26.4743 11.4131C27.714 12.3428 28.4436 13.8019 28.4436 15.3515V23.5225C28.4436 26.2414 26.2394 28.4455 23.5205 28.4455H21.1597C20.48 28.4455 19.929 27.8945 19.929 27.2148V23.4404C19.929 22.0809 18.8269 20.9789 17.4674 20.9789H14.5308C13.1714 20.9789 12.0693 22.0809 12.0693 23.4404V27.2148C12.0693 27.8945 11.5183 28.4455 10.8385 28.4455H8.47777C5.75883 28.4455 3.55469 26.2414 3.55469 23.5225L3.55469 15.3515Z" stroke="#9495A9" stroke-width="1.84615"/>
</svg>
