<svg width="16" height="16" viewBox="0 0 16 16" fill="none" xmlns="http://www.w3.org/2000/svg">
<rect width="16" height="16" rx="8" fill="#389928"/>
<path d="M6.50007 10.0849L4.76507 8.34992C4.67158 8.25643 4.54479 8.20391 4.41257 8.20391C4.28036 8.20391 4.15356 8.25643 4.06007 8.34992C3.96658 8.44341 3.91406 8.5702 3.91406 8.70242C3.91406 8.76788 3.92696 8.83271 3.95201 8.89319C3.97706 8.95367 4.01378 9.00863 4.06007 9.05492L6.15007 11.1449C6.34507 11.3399 6.66007 11.3399 6.85507 11.1449L12.1451 5.85492C12.2386 5.76143 12.2911 5.63463 12.2911 5.50242C12.2911 5.3702 12.2386 5.24341 12.1451 5.14992C12.0516 5.05643 11.9248 5.00391 11.7926 5.00391C11.6604 5.00391 11.5336 5.05643 11.4401 5.14992L6.50007 10.0849Z" fill="white"/>
</svg>
