<svg width="16" height="16" viewBox="0 0 16 16" fill="none" xmlns="http://www.w3.org/2000/svg">
<circle r="2" transform="matrix(-1 0 0 1 8 6.66602)" stroke="white"/>
<path d="M13.5 6.83333C13.5 8.65155 12.3956 10.5776 11.0738 12.0871C10.4208 12.8329 9.735 13.4533 9.14831 13.883C8.85453 14.0982 8.5936 14.2596 8.38062 14.365C8.15222 14.478 8.03124 14.5 8 14.5V15.5C8.26876 15.5 8.56028 15.3918 8.82407 15.2613C9.10327 15.1231 9.41422 14.9278 9.73919 14.6898C10.39 14.2131 11.1292 13.5418 11.8262 12.7458C13.2044 11.1719 14.5 9.01455 14.5 6.83333H13.5ZM8 14.5C7.96876 14.5 7.84778 14.478 7.61938 14.365C7.4064 14.2596 7.14547 14.0982 6.85169 13.883C6.265 13.4533 5.5792 12.8329 4.92617 12.0871C3.6044 10.5776 2.5 8.65155 2.5 6.83333H1.5C1.5 9.01455 2.7956 11.1719 4.17383 12.7458C4.8708 13.5418 5.61 14.2131 6.26081 14.6898C6.58578 14.9278 6.89673 15.1231 7.17593 15.2613C7.43972 15.3918 7.73125 15.5 8 15.5V14.5ZM2.5 6.83333C2.5 3.901 4.94906 1.5 8 1.5V0.5C4.42352 0.5 1.5 3.32235 1.5 6.83333H2.5ZM8 1.5C11.0509 1.5 13.5 3.901 13.5 6.83333H14.5C14.5 3.32235 11.5765 0.5 8 0.5V1.5Z" fill="white"/>
</svg>
