<svg width="20" height="20" viewBox="0 0 20 20" fill="none" xmlns="http://www.w3.org/2000/svg">
<circle r="2.5" transform="matrix(-1 0 0 1 10 8.33203)" stroke="#1B1D1F" stroke-width="1.25"/>
<path d="M16.875 8.54167C16.875 10.8144 15.4945 13.222 13.8423 15.1088C13.026 16.0411 12.1687 16.8166 11.4354 17.3537C11.0682 17.6227 10.742 17.8245 10.4758 17.9562C10.1903 18.0975 10.0391 18.125 10 18.125V19.375C10.3359 19.375 10.7003 19.2397 11.0301 19.0766C11.3791 18.9039 11.7678 18.6597 12.174 18.3622C12.9875 17.7664 13.9115 16.9272 14.7827 15.9323C16.5055 13.9648 18.125 11.2682 18.125 8.54167H16.875ZM10 18.125C9.96094 18.125 9.80973 18.0975 9.52423 17.9562C9.258 17.8245 8.93184 17.6227 8.56461 17.3537C7.83125 16.8166 6.97401 16.0411 6.15771 15.1088C4.5055 13.222 3.125 10.8144 3.125 8.54167H1.875C1.875 11.2682 3.4945 13.9648 5.21729 15.9323C6.08849 16.9272 7.0125 17.7664 7.82602 18.3622C8.23222 18.6597 8.62091 18.9039 8.96991 19.0766C9.29965 19.2397 9.66406 19.375 10 19.375V18.125ZM3.125 8.54167C3.125 4.87625 6.18633 1.875 10 1.875V0.625C5.5294 0.625 1.875 4.15293 1.875 8.54167H3.125ZM10 1.875C13.8137 1.875 16.875 4.87625 16.875 8.54167H18.125C18.125 4.15293 14.4706 0.625 10 0.625V1.875Z" fill="#1B1D1F"/>
</svg>
