<svg width="28" height="34" viewBox="0 0 28 34" fill="none" xmlns="http://www.w3.org/2000/svg">
<path d="M1.1681 13.6593V13.657C1.1681 6.59004 6.92571 0.832031 14.0014 0.832031C21.077 0.832031 26.8348 6.58984 26.8348 13.6654L26.8348 13.6676C26.8581 18.8385 23.6356 23.7177 20.3169 27.3533C18.667 29.1608 17.014 30.6385 15.773 31.6644C15.1529 32.177 14.6366 32.576 14.2763 32.8462C14.1704 32.9257 14.0779 32.994 14.0003 33.0508C13.0866 32.3914 10.266 30.2734 7.49711 27.2185C4.24552 23.6311 1.1448 18.8385 1.1681 13.6593ZM6.83477 13.6654C6.83477 17.6248 10.042 20.832 14.0014 20.832C17.9609 20.832 21.1681 17.6248 21.1681 13.6654C21.1681 9.70589 17.9609 6.4987 14.0014 6.4987C10.042 6.4987 6.83477 9.70589 6.83477 13.6654Z" fill="#272837" stroke="#272837"/>
</svg>
