<svg width="16" height="15" viewBox="0 0 16 15" fill="none" xmlns="http://www.w3.org/2000/svg">
<path d="M2.41516 13.4668L2.72751 13.8573H2.72751L2.41516 13.4668ZM4.30014 11.9588L3.9878 11.5684L4.30014 11.9588ZM1.83203 4.33334C1.83203 2.76853 3.10056 1.5 4.66536 1.5V0.5C2.54827 0.5 0.832031 2.21624 0.832031 4.33334H1.83203ZM1.83203 8V4.33334H0.832031V8H1.83203ZM1.83203 8.33333V8H0.832031V8.33333H1.83203ZM1.83203 12.9462V8.33333H0.832031V12.9462H1.83203ZM2.10281 13.0764C1.99369 13.1637 1.83203 13.086 1.83203 12.9462H0.832031C0.832031 13.9245 1.96362 14.4684 2.72751 13.8573L2.10281 13.0764ZM3.9878 11.5684L2.10281 13.0764L2.72751 13.8573L4.61249 12.3493L3.9878 11.5684ZM11.332 11.1667H5.13307V12.1667H11.332V11.1667ZM14.1654 8.33333C14.1654 9.89814 12.8968 11.1667 11.332 11.1667V12.1667C13.4491 12.1667 15.1654 10.4504 15.1654 8.33333H14.1654ZM14.1654 4.33333V8.33333H15.1654V4.33333H14.1654ZM11.332 1.5C12.8968 1.5 14.1654 2.76853 14.1654 4.33333H15.1654C15.1654 2.21624 13.4491 0.5 11.332 0.5V1.5ZM4.66536 1.5H11.332V0.5H4.66536V1.5ZM4.61249 12.3493C4.76025 12.2311 4.94384 12.1667 5.13307 12.1667V11.1667C4.71677 11.1667 4.31287 11.3083 3.9878 11.5684L4.61249 12.3493Z" fill="white"/>
<circle cx="4.70052" cy="6.36654" r="0.833333" fill="white"/>
<circle cx="8.03646" cy="6.36654" r="0.833333" fill="white"/>
<circle cx="11.3646" cy="6.36654" r="0.833333" fill="white"/>
</svg>
