<svg width="48" height="48" viewBox="0 0 48 48" fill="none" xmlns="http://www.w3.org/2000/svg">
<path d="M16.007 42.3387L16.407 41.4222L16.007 42.3387ZM31.9869 42.341L32.3866 43.2577L31.9869 42.341ZM42.3408 31.9874L41.4242 31.5876L42.3408 31.9874ZM42.6177 31.3195L41.6871 30.9534L42.6177 31.3195ZM16.6797 42.6177L16.3135 43.5483L16.6797 42.6177ZM31.988 5.65874L31.5883 6.57535L31.988 5.65874ZM42.6177 16.6797L41.6871 17.0458L42.6177 16.6797ZM16.6797 5.38154L16.3136 4.45098L16.6797 5.38154ZM32.3878 4.74214C32.1559 4.64099 31.9219 4.54391 31.6857 4.45099L30.9534 6.3121C31.1669 6.39612 31.3786 6.48389 31.5883 6.57535L32.3878 4.74214ZM43.5483 16.3135C43.4547 16.0757 43.3568 15.8399 43.2549 15.6064L41.4219 16.4064C41.5141 16.6176 41.6025 16.8308 41.6871 17.0458L43.5483 16.3135ZM43.2574 32.3871C43.3585 32.1555 43.4554 31.9216 43.5483 31.6857L41.6871 30.9534C41.6032 31.1667 41.5155 31.3781 41.4242 31.5876L43.2574 32.3871ZM31.6857 43.5483C31.9214 43.4555 32.1551 43.3586 32.3866 43.2577L31.5871 41.4244C31.3778 41.5157 31.1665 41.6033 30.9534 41.6871L31.6857 43.5483ZM15.607 43.2552C15.8404 43.357 16.0759 43.4547 16.3135 43.5483L17.0458 41.6871C16.831 41.6026 16.618 41.5142 16.407 41.4222L15.607 43.2552ZM4.45098 31.6857C4.54382 31.9216 4.6408 32.1555 4.74184 32.3872L6.57508 31.5876C6.48372 31.3782 6.39603 31.1667 6.31209 30.9534L4.45098 31.6857ZM4.74436 15.6063C4.64242 15.8399 4.54459 16.0757 4.45098 16.3136L6.3121 17.0459C6.39673 16.8308 6.48518 16.6176 6.57736 16.4064L4.74436 15.6063ZM16.3136 4.45098C16.0755 4.54466 15.8395 4.64256 15.6058 4.74458L16.4059 6.57756C16.6173 6.48531 16.8306 6.39679 17.0459 6.31209L16.3136 4.45098ZM12.6831 12.6835C13.2273 12.1393 13.6127 11.4748 13.9184 10.8343C14.2177 10.2069 14.4847 9.50102 14.7244 8.92324C15.2557 7.64304 15.7103 6.88121 16.4059 6.57756L15.6058 4.74458C14.0825 5.4095 13.3782 6.94936 12.8772 8.15669C12.6008 8.82267 12.3834 9.40701 12.1133 9.97295C11.8496 10.5257 11.5807 10.9575 11.2689 11.2693L12.6831 12.6835ZM6.57736 16.4064C6.88099 15.7108 7.64277 15.2561 8.92292 14.7249C9.50067 14.4851 10.2065 14.2181 10.8339 13.9188C11.4744 13.6132 12.1389 13.2277 12.6831 12.6835L11.2689 11.2693C10.9571 11.5811 10.5253 11.85 9.97253 12.1138C9.40661 12.3838 8.82229 12.6013 8.15632 12.8776C6.94903 13.3787 5.40923 14.0831 4.74436 15.6063L6.57736 16.4064ZM7.99962 23.9996C7.99962 23.2294 7.80186 22.4863 7.56462 21.8168C7.33226 21.1611 7.0213 20.4726 6.78189 19.8941C6.25134 18.6123 6.03419 17.7521 6.3121 17.0459L4.45098 16.3136C3.84176 17.8619 4.43365 19.4503 4.93392 20.659C5.20993 21.3258 5.46983 21.8932 5.67947 22.4848C5.88424 23.0626 5.99962 23.5584 5.99962 23.9996H7.99962ZM6.31209 30.9534C6.03419 30.2471 6.25134 29.387 6.78189 28.1051C7.0213 27.5267 7.33225 26.8382 7.56461 26.1824C7.80186 25.5129 7.99962 24.7698 7.99962 23.9996H5.99962C5.99962 24.4408 5.88424 24.9366 5.67947 25.5144C5.46983 26.1061 5.20993 26.6734 4.93392 27.3402C4.43365 28.5489 3.84176 30.1374 4.45098 31.6857L6.31209 30.9534ZM12.6835 35.3114C12.1392 34.767 11.4743 34.3815 10.8335 34.0758C10.2058 33.7764 9.49957 33.5093 8.92149 33.2695C7.64054 32.7381 6.87852 32.2834 6.57508 31.5876L4.74184 32.3872C5.40652 33.9112 6.94725 34.6158 8.15514 35.1169C8.82147 35.3933 9.40614 35.6108 9.97238 35.8809C10.5255 36.1447 10.9574 36.4137 11.2693 36.7256L12.6835 35.3114ZM16.407 41.4222C15.7111 41.1185 15.2565 40.356 14.7253 39.0746C14.4855 38.4963 14.2186 37.7898 13.9192 37.1619C13.6136 36.5209 13.228 35.8559 12.6835 35.3114L11.2693 36.7256C11.5812 37.0375 11.8502 37.4695 12.114 38.0227C12.384 38.5891 12.6014 39.174 12.8777 39.8405C13.3786 41.0487 14.0829 42.59 15.607 43.2552L16.407 41.4222ZM35.3114 35.3118C34.7668 35.8564 34.3811 36.5217 34.0754 37.163C33.776 37.7911 33.509 38.4978 33.2692 39.0763C32.7379 40.3583 32.2831 41.1209 31.5871 41.4244L32.3866 43.2577C33.9114 42.5927 34.6159 41.0508 35.1168 39.8421C35.3932 39.1754 35.6107 38.5902 35.8808 38.0236C36.1446 37.4702 36.4136 37.038 36.7256 36.726L35.3114 35.3118ZM41.4242 31.5876C41.1206 32.2836 40.3581 32.7383 39.076 33.2697C38.4974 33.5095 37.7907 33.7764 37.1626 34.0759C36.5213 34.3816 35.856 34.7672 35.3114 35.3118L36.7256 36.726C37.0375 36.4141 37.4697 36.1451 38.0232 35.8812C38.5898 35.6111 39.175 35.3937 39.8418 35.1173C41.0504 34.6164 42.5924 33.9119 43.2574 32.3871L41.4242 31.5876ZM39.9996 23.9996C39.9996 24.7699 40.1974 25.513 40.4346 26.1825C40.667 26.8382 40.9779 27.5267 41.2174 28.1051C41.7479 29.387 41.9651 30.2471 41.6871 30.9534L43.5483 31.6857C44.1575 30.1374 43.5656 28.549 43.0653 27.3403C42.7893 26.6734 42.5294 26.1061 42.3198 25.5144C42.115 24.9366 41.9996 24.4408 41.9996 23.9996H39.9996ZM35.3118 12.6831C35.8563 13.2275 36.5213 13.6131 37.1622 13.9187C37.79 14.2181 38.4963 14.485 39.0746 14.7247C40.3558 15.256 41.1182 15.7106 41.4219 16.4064L43.2549 15.6064C42.5897 14.0824 41.0487 13.3781 39.8406 12.8772C39.1741 12.6009 38.5894 12.3835 38.0231 12.1135C37.4699 11.8497 37.0379 11.5807 36.726 11.2689L35.3118 12.6831ZM23.9996 39.9996C23.2294 39.9996 22.4863 40.1974 21.8168 40.4346C21.1611 40.667 20.4726 40.9779 19.8941 41.2174C18.6123 41.7479 17.7521 41.9651 17.0458 41.6871L16.3135 43.5483C17.8619 44.1575 19.4503 43.5656 20.659 43.0653C21.3259 42.7893 21.8932 42.5294 22.4848 42.3198C23.0626 42.115 23.5584 41.9996 23.9996 41.9996V39.9996ZM31.5883 6.57535C32.284 6.8788 32.7387 7.64074 33.2701 8.9215C33.5099 9.49949 33.7769 10.2057 34.0763 10.8332C34.382 11.474 34.7675 12.1388 35.3118 12.6831L36.726 11.2689C36.4142 10.957 36.1452 10.5251 35.8814 9.97207C35.6113 9.40589 35.3938 8.82131 35.1174 8.15506C34.6163 6.94732 33.9117 5.40681 32.3878 4.74214L31.5883 6.57535ZM23.9996 7.99962C24.7699 7.99962 25.513 7.80186 26.1825 7.56462C26.8382 7.33225 27.5267 7.0213 28.1051 6.78189C29.387 6.25134 30.2471 6.03419 30.9534 6.3121L31.6857 4.45099C30.1374 3.84176 28.549 4.43365 27.3403 4.93392C26.6734 5.20993 26.1061 5.46983 25.5145 5.67947C24.9366 5.88424 24.4408 5.99962 23.9996 5.99962V7.99962ZM41.6871 17.0458C41.9651 17.7521 41.7479 18.6123 41.2174 19.8941C40.9779 20.4726 40.667 21.1611 40.4346 21.8168C40.1974 22.4863 39.9996 23.2294 39.9996 23.9996H41.9996C41.9996 23.5584 42.115 23.0626 42.3198 22.4848C42.5294 21.8932 42.7893 21.3259 43.0653 20.659C43.5656 19.4503 44.1575 17.8619 43.5483 16.3135L41.6871 17.0458ZM30.9534 41.6871C30.2471 41.9651 29.387 41.7479 28.1051 41.2174C27.5267 40.9779 26.8382 40.667 26.1825 40.4346C25.513 40.1974 24.7699 39.9996 23.9996 39.9996V41.9996C24.4408 41.9996 24.9366 42.115 25.5144 42.3198C26.1061 42.5294 26.6734 42.7893 27.3403 43.0653C28.549 43.5656 30.1374 44.1575 31.6857 43.5483L30.9534 41.6871ZM23.9996 5.99962C23.5584 5.99962 23.0627 5.88423 22.4848 5.67947C21.8932 5.46983 21.3259 5.20993 20.659 4.93392C19.4503 4.43365 17.8619 3.84176 16.3136 4.45098L17.0459 6.31209C17.7522 6.03419 18.6123 6.25134 19.8942 6.78189C20.4726 7.0213 21.1611 7.33225 21.8168 7.56461C22.4863 7.80186 23.2294 7.99962 23.9996 7.99962V5.99962Z" fill="#1B1D1F"/>
<path d="M15.3041 24.6766L14.6441 23.3566H14.5841L14.7761 24.6766V29.0566H13.2161V20.5966H14.4161L17.5961 25.0726L18.2321 26.3566H18.2921L18.1001 25.0726V20.6566H19.6601V29.1166H18.4601L15.3041 24.6766ZM21.1028 20.6566H26.0828V22.1206H22.7468V24.0766H25.7828V25.5406H22.7468V27.5926H26.1428V29.0566H21.1028V20.6566ZM29.5563 25.3486L29.7123 26.8366H29.7603L29.9283 25.3246L31.3923 20.6566H32.4723L33.9123 25.3486L34.0803 26.8366H34.1283L34.3083 25.3246L35.3283 20.6566H36.9963L34.6803 29.1166H33.5763L32.0763 24.4486L31.8723 23.1646H31.8123L31.6083 24.4606L30.1203 29.1166H28.9563L26.6523 20.6566H28.4403L29.5563 25.3486Z" fill="#1B1D1F"/>
</svg>
