<svg width="16" height="16" viewBox="0 0 16 16" fill="none" xmlns="http://www.w3.org/2000/svg">
<path d="M12.708 13.9789C11.4052 15.2817 8.06855 14.0575 5.25551 11.2445C2.44248 8.43145 1.21826 5.09485 2.52114 3.79197L3.37898 2.93412C3.9712 2.3419 4.94703 2.35756 5.55856 2.96909L6.88728 4.29781C7.49881 4.90934 7.51447 5.88517 6.92225 6.47739L6.73799 6.66165C6.41825 6.98139 6.38696 7.49721 6.68407 7.85725C6.97064 8.20452 7.2796 8.55043 7.61458 8.88542C7.94957 9.2204 8.29548 9.52936 8.64275 9.81593C9.00279 10.113 9.51861 10.0818 9.83835 9.76201L10.0226 9.57775C10.6148 8.98553 11.5907 9.00119 12.2022 9.61272L13.5309 10.9414C14.1424 11.553 14.1581 12.5288 13.5659 13.121L12.708 13.9789Z" stroke="#1B1D1F"/>
<path d="M11.7508 6.5008C11.5881 6.10401 11.3457 5.73226 11.0235 5.41008C10.7196 5.10609 10.3714 4.87311 9.9998 4.71114" stroke="#1B1D1F" stroke-linecap="round"/>
<path d="M10.0001 2.4413C10.8899 2.76363 11.7247 3.28146 12.438 3.99479C13.1692 4.72602 13.695 5.58491 14.0154 6.49978" stroke="#1B1D1F" stroke-linecap="round"/>
</svg>
