<svg width="24" height="24" viewBox="0 0 24 24" fill="none" xmlns="http://www.w3.org/2000/svg">
<path d="M2 6.16667L1.71154 5.47436C1.43205 5.59081 1.25 5.86389 1.25 6.16667H2ZM12 22L11.7115 22.6923C11.8962 22.7692 12.1038 22.7692 12.2885 22.6923L12 22ZM22 6.16667H22.75C22.75 5.86389 22.5679 5.59081 22.2885 5.47436L22 6.16667ZM7 8.25L6.71154 8.94231L7 8.25ZM11.2308 2.32051L10.9423 1.62821L11.2308 2.32051ZM2.61538 18.0897L2.32692 18.7821L2.61538 18.0897ZM2.75 17.1667V6.16667H1.25V17.1667H2.75ZM11.25 10.3333V22H12.75V10.3333H11.25ZM12.2885 21.3077L2.90385 17.3974L2.32692 18.7821L11.7115 22.6923L12.2885 21.3077ZM12.2885 22.6923L21.6731 18.7821L21.0962 17.3974L11.7115 21.3077L12.2885 22.6923ZM22.75 17.1667V6.16667H21.25V17.1667H22.75ZM21.7115 5.47436L11.7115 9.64103L12.2885 11.0256L22.2885 6.85897L21.7115 5.47436ZM10.9423 1.62821L1.71154 5.47436L2.28846 6.85897L11.5192 3.01282L10.9423 1.62821ZM1.71154 6.85897L6.71154 8.94231L7.28846 7.55769L2.28846 5.47436L1.71154 6.85897ZM6.71154 8.94231L11.7115 11.0256L12.2885 9.64103L7.28846 7.55769L6.71154 8.94231ZM22.2885 5.47436L17.2885 3.39103L16.7115 4.77564L21.7115 6.85897L22.2885 5.47436ZM17.2885 3.39103L13.0577 1.6282L12.4808 3.01282L16.7115 4.77564L17.2885 3.39103ZM7.28846 8.94231L17.2885 4.77564L16.7115 3.39103L6.71154 7.55769L7.28846 8.94231ZM11.5192 3.01282C11.8269 2.88462 12.1731 2.88462 12.4808 3.01282L13.0577 1.6282C12.3808 1.34615 11.6192 1.34615 10.9423 1.62821L11.5192 3.01282ZM21.6731 18.7821C22.3252 18.5103 22.75 17.8731 22.75 17.1667H21.25C21.25 17.2676 21.1893 17.3586 21.0962 17.3974L21.6731 18.7821ZM1.25 17.1667C1.25 17.8731 1.67479 18.5103 2.32692 18.7821L2.90385 17.3974C2.81068 17.3586 2.75 17.2676 2.75 17.1667H1.25Z" fill="#1B1D1F"/>
</svg>
