<svg width="48" height="48" viewBox="0 0 48 48" fill="none" xmlns="http://www.w3.org/2000/svg">
<path d="M16.007 42.3387L16.607 40.9639L16.007 42.3387ZM31.9869 42.341L32.5865 43.716L31.9869 42.341ZM42.3408 31.9874L40.9659 31.3877L42.3408 31.9874ZM42.6177 31.3195L41.2219 30.7703L42.6177 31.3195ZM16.6797 42.6177L16.1305 44.0135L16.6797 42.6177ZM31.988 5.65874L31.3884 7.03365L31.988 5.65874ZM42.6177 16.6797L41.2219 17.2289L42.6177 16.6797ZM16.6797 5.38154L16.1305 3.9857L16.6797 5.38154ZM32.5877 4.28383C32.3503 4.18027 32.1106 4.08086 31.8688 3.98571L30.7703 6.77738C30.9782 6.85917 31.1842 6.94462 31.3884 7.03365L32.5877 4.28383ZM44.0135 16.1305C43.9177 15.8869 43.8175 15.6455 43.7132 15.4064L40.9637 16.6064C41.0534 16.812 41.1395 17.0195 41.2219 17.2289L44.0135 16.1305ZM43.7157 32.587C43.8192 32.3498 43.9185 32.1103 44.0135 31.8688L41.2219 30.7703C41.1402 30.978 41.0548 31.1838 40.9659 31.3877L43.7157 32.587ZM31.8688 44.0135C32.1102 43.9186 32.3494 43.8193 32.5865 43.716L31.3873 40.9661C31.1835 41.0549 30.9778 41.1402 30.7703 41.2219L31.8688 44.0135ZM15.407 43.7135C15.6459 43.8177 15.8871 43.9178 16.1305 44.0135L17.2289 41.2219C17.0197 41.1396 16.8124 41.0536 16.607 40.9639L15.407 43.7135ZM3.9857 31.8688C4.08077 32.1104 4.18007 32.3498 4.28353 32.587L7.03339 31.3878C6.94445 31.1838 6.85908 30.978 6.77737 30.7703L3.9857 31.8688ZM4.28611 15.4063C4.18172 15.6454 4.08156 15.8869 3.98571 16.1305L6.77738 17.2289C6.85977 17.0195 6.94587 16.812 7.03561 16.6064L4.28611 15.4063ZM16.1305 3.9857C15.8867 4.08162 15.6451 4.18187 15.4058 4.28634L16.606 7.03581C16.8117 6.94599 17.0194 6.85982 17.2289 6.77737L16.1305 3.9857ZM13.0366 13.0371C13.6389 12.4348 14.0535 11.712 14.3696 11.0496C14.6763 10.4069 14.9557 9.67061 15.1863 9.11487C15.7251 7.81646 16.1172 7.24914 16.606 7.03581L15.4058 4.28634C13.6756 5.04158 12.9088 6.77594 12.4154 7.96505C12.1299 8.65309 11.9248 9.20704 11.6621 9.75762C11.4088 10.2885 11.169 10.662 10.9153 10.9157L13.0366 13.0371ZM7.03561 16.6064C7.24892 16.1177 7.8162 15.7255 9.11457 15.1867C9.67027 14.9561 10.4065 14.6767 11.0492 14.37C11.7116 14.0539 12.4344 13.6393 13.0366 13.0371L10.9153 10.9157C10.6616 11.1695 10.288 11.4092 9.75719 11.6625C9.20662 11.9252 8.65269 12.1303 7.96468 12.4158C6.7756 12.9093 5.04129 13.6761 4.28611 15.4063L7.03561 16.6064ZM8.49962 23.9996C8.49962 23.1471 8.28126 22.3422 8.0359 21.6498C7.79786 20.978 7.47414 20.2593 7.24389 19.7029C6.70576 18.4027 6.5823 17.7247 6.77738 17.2289L3.98571 16.1305C3.29366 17.8893 3.97923 19.6598 4.47193 20.8502C4.75708 21.5392 5.00422 22.0762 5.20819 22.6518C5.40483 23.2067 5.49962 23.6407 5.49962 23.9996H8.49962ZM6.77737 30.7703C6.58229 30.2745 6.70576 29.5965 7.24389 28.2963C7.47414 27.74 7.79786 27.0212 8.0359 26.3494C8.28126 25.657 8.49962 24.8521 8.49962 23.9996H5.49962C5.49962 24.3585 5.40483 24.7925 5.20819 25.3474C5.00422 25.923 4.75708 26.4601 4.47193 27.149C3.97923 28.3394 3.29365 30.1099 3.9857 31.8688L6.77737 30.7703ZM13.0371 34.9578C12.4346 34.3553 11.7115 33.9406 11.0488 33.6245C10.4058 33.3178 9.6691 33.0384 9.11308 32.8077C7.81386 32.2687 7.24652 31.8765 7.03339 31.3878L4.28353 32.587C5.03852 34.3182 6.77393 35.0852 7.96355 35.5787C8.65195 35.8643 9.20621 36.0694 9.75711 36.3322C10.2883 36.5856 10.662 36.8254 10.9158 37.0791L13.0371 34.9578ZM16.607 40.9639C16.1182 40.7506 15.726 40.1829 15.1872 38.8831C14.9566 38.3268 14.6773 37.59 14.3705 36.9467C14.0544 36.2838 13.6397 35.5605 13.0371 34.9578L10.9158 37.0791C11.1695 37.3329 11.4093 37.7067 11.6626 38.2379C11.9254 38.7889 12.1304 39.3434 12.4159 40.032C12.9091 41.2219 13.6758 42.9579 15.407 43.7135L16.607 40.9639ZM34.9578 34.9583C34.355 35.561 33.9402 36.2846 33.6241 36.9478C33.3173 37.5913 33.038 38.3284 32.8073 38.8849C32.2684 40.1852 31.8761 40.7529 31.3873 40.9661L32.5865 43.716C34.3184 42.9607 35.0854 41.2239 35.5787 40.0336C35.8642 39.3447 36.0693 38.79 36.3321 38.2388C36.5855 37.7073 36.8253 37.3334 37.0791 37.0796L34.9578 34.9583ZM40.9659 31.3877C40.7527 31.8765 40.185 32.2688 38.8846 32.8078C38.3281 33.0384 37.5909 33.3178 36.9474 33.6245C36.2842 33.9407 35.5606 34.3555 34.9578 34.9583L37.0791 37.0796C37.3329 36.8258 37.7068 36.5859 38.2384 36.3326C38.7896 36.0698 39.3443 35.8647 40.0332 35.5792C41.2235 35.0859 42.9604 34.319 43.7157 32.587L40.9659 31.3877ZM39.4996 23.9996C39.4996 24.8521 39.718 25.657 39.9633 26.3495C40.2014 27.0212 40.5251 27.74 40.7554 28.2963C41.2935 29.5965 41.4169 30.2745 41.2219 30.7703L44.0135 31.8688C44.7056 30.1099 44.02 28.3395 43.5273 27.149C43.2422 26.4601 42.995 25.923 42.7911 25.3474C42.5944 24.7925 42.4996 24.3586 42.4996 23.9996H39.4996ZM34.9583 13.0366C35.5609 13.6392 36.2841 14.0539 36.947 14.37C37.5901 14.6767 38.3269 14.956 38.8831 15.1866C40.1826 15.7254 40.7503 16.1176 40.9637 16.6064L43.7132 15.4064C42.9576 13.6753 41.2219 12.9087 40.0321 12.4154C39.3436 12.1299 38.7892 11.9249 38.2383 11.6622C37.7071 11.4088 37.3333 11.1691 37.0796 10.9153L34.9583 13.0366ZM23.9996 39.4996C23.1471 39.4996 22.3422 39.718 21.6498 39.9633C20.978 40.2014 20.2593 40.5251 19.7029 40.7554C18.4028 41.2935 17.7247 41.4169 17.2289 41.2219L16.1305 44.0135C17.8893 44.7056 19.6598 44.02 20.8502 43.5273C21.5392 43.2422 22.0762 42.995 22.6518 42.7911C23.2067 42.5944 23.6407 42.4996 23.9996 42.4996V39.4996ZM31.3884 7.03365C31.877 7.2468 32.2693 7.8141 32.8082 9.1131C33.0389 9.66904 33.3183 10.4056 33.625 11.0485C33.9412 11.7112 34.3559 12.4342 34.9583 13.0366L37.0796 10.9153C36.8259 10.6616 36.5861 10.2879 36.3327 9.75678C36.0699 9.20595 35.8648 8.65177 35.5792 7.96345C35.0857 6.77396 34.3187 5.03881 32.5877 4.28383L31.3884 7.03365ZM23.9996 8.49962C24.8521 8.49962 25.657 8.28126 26.3495 8.0359C27.0212 7.79786 27.74 7.47414 28.2963 7.24389C29.5965 6.70576 30.2745 6.5823 30.7703 6.77738L31.8688 3.98571C30.1099 3.29366 28.3395 3.97923 27.149 4.47193C26.4601 4.75708 25.923 5.00422 25.3474 5.20819C24.7925 5.40483 24.3586 5.49962 23.9996 5.49962V8.49962ZM41.2219 17.2289C41.4169 17.7247 41.2935 18.4028 40.7554 19.7029C40.5251 20.2593 40.2014 20.978 39.9633 21.6498C39.718 22.3422 39.4996 23.1471 39.4996 23.9996H42.4996C42.4996 23.6407 42.5944 23.2067 42.7911 22.6518C42.995 22.0762 43.2422 21.5392 43.5273 20.8502C44.02 19.6598 44.7056 17.8893 44.0135 16.1305L41.2219 17.2289ZM30.7703 41.2219C30.2745 41.4169 29.5965 41.2935 28.2963 40.7554C27.74 40.5251 27.0212 40.2014 26.3495 39.9633C25.657 39.718 24.8521 39.4996 23.9996 39.4996V42.4996C24.3586 42.4996 24.7925 42.5944 25.3474 42.7911C25.923 42.995 26.4601 43.2422 27.149 43.5273C28.3395 44.02 30.1099 44.7056 31.8688 44.0135L30.7703 41.2219ZM23.9996 5.49962C23.6407 5.49962 23.2067 5.40483 22.6518 5.20819C22.0762 5.00422 21.5392 4.75708 20.8502 4.47193C19.6598 3.97923 17.8893 3.29365 16.1305 3.9857L17.2289 6.77737C17.7247 6.58229 18.4028 6.70576 19.7029 7.24389C20.2593 7.47414 20.978 7.79786 21.6498 8.0359C22.3422 8.28126 23.1471 8.49962 23.9996 8.49962V5.49962Z" fill="#2F3190"/>
<circle cx="19.5957" cy="19.5962" r="1.58308" transform="rotate(45 19.5957 19.5962)" fill="#2F3190"/>
<circle cx="28.4023" cy="28.4029" r="1.58308" transform="rotate(45 28.4023 28.4029)" fill="#2F3190"/>
<path d="M19.5213 28.4787L28.4766 19.5234" stroke="#2F3190" stroke-width="3" stroke-linecap="round" stroke-linejoin="round"/>
</svg>
