<svg width="24" height="24" viewBox="0 0 24 24" fill="none" xmlns="http://www.w3.org/2000/svg">
<path d="M12 2V8.69048M12 8.69048L5.58333 6.88095M12 8.69048L18.4167 10.5M5.58333 6.88095L2.83333 13.4048M5.58333 6.88095L8.33333 13.4048M5.58333 6.88095L3.75 6.42857M18.4167 10.5L15.6667 17.0238M18.4167 10.5L21.1667 17.0238M18.4167 10.5L20.25 10.9524M15.6667 17.0238H13.8333V17.4167C13.8333 19.948 15.8854 22 18.4167 22V22C20.948 22 23 19.948 23 17.4167V17.0238H21.1667M15.6667 17.0238H21.1667M2.83333 13.4048H1V13.7976C1 16.3289 3.05203 18.381 5.58333 18.381V18.381C8.11464 18.381 10.1667 16.3289 10.1667 13.7976V13.4048H8.33333M2.83333 13.4048H8.33333" stroke="#1B1D1F" stroke-width="1.5" stroke-linecap="round" stroke-linejoin="round"/>
</svg>
