<svg width="48" height="48" viewBox="0 0 48 48" fill="none" xmlns="http://www.w3.org/2000/svg">
<circle r="6" transform="matrix(-1 0 0 1 24 24)" stroke="#2F3190" stroke-width="3"/>
<path d="M33 9.875L33.75 8.57596L33 9.875ZM33 38.1233L32.25 36.8243L33 38.1233ZM15 38.1233L14.25 39.4224L15 38.1233ZM15 9.875L14.25 8.57596L15 9.875ZM17.8459 6.03033L19.3073 6.36852L17.8459 6.03033ZM19.0782 4.61035L18.7102 3.15621L19.0782 4.61035ZM5.81373 19.367L4.85989 20.5247L5.81373 19.367ZM10.6238 37.4794L10.2794 36.0195L10.6238 37.4794ZM19.0786 43.3897L19.4466 41.9356L19.0786 43.3897ZM30.1538 41.9696L28.6924 41.6318L30.1538 41.9696ZM28.9212 43.3902L28.5534 41.936L28.9212 43.3902ZM39.1955 37.0053L38.0564 36.0294L39.1955 37.0053ZM37.3774 37.4797L37.722 36.0198L37.3774 37.4797ZM42.8883 17.4058L41.4721 17.9002L42.8883 17.4058ZM42.188 19.3671L41.2342 18.2094L42.188 19.3671ZM5.11348 30.5942L3.69729 31.0886L5.11348 30.5942ZM5.81373 28.633L4.85989 27.4753L5.81373 28.633ZM39.1942 10.9932L38.0552 11.9692L39.1942 10.9932ZM8.80723 10.9936L9.94628 11.9696L8.80723 10.9936ZM10.6247 10.5191L10.2805 11.9791L10.6247 10.5191ZM42.188 28.6329L41.2342 29.7906L42.188 28.6329ZM42.8883 30.5942L41.4721 30.0998L42.8883 30.5942ZM28.9216 4.60987L28.5537 6.06405L28.9216 4.60987ZM28.6927 6.36813C29.1443 8.31995 30.3755 10.0918 32.25 11.174L33.75 8.57596C32.6253 7.92656 31.8875 6.86752 31.6155 5.69191L28.6927 6.36813ZM32.25 11.174C33.9722 12.1683 35.9281 12.4017 37.7209 11.9788L37.0321 9.05892C35.9537 9.31331 34.7843 9.17309 33.75 8.57596L32.25 11.174ZM44.3045 16.9114C43.4133 14.3586 42.0551 12.0265 40.3332 10.0172L38.0552 11.9692C39.5382 13.6999 40.7063 15.7065 41.4721 17.9002L44.3045 16.9114ZM41.5009 24C41.5009 22.6013 42.1373 21.3525 43.1419 20.5247L41.2342 18.2094C39.5676 19.5826 38.5009 21.6673 38.5009 24H41.5009ZM43.1419 27.4753C42.1373 26.6475 41.5009 25.3987 41.5009 24H38.5009C38.5009 26.3327 39.5676 28.4174 41.2342 29.7906L43.1419 27.4753ZM40.3346 37.9812C42.0558 35.9722 43.4135 33.6407 44.3045 31.0886L41.4721 30.0998C40.7065 32.2929 39.5388 34.299 38.0564 36.0294L40.3346 37.9812ZM33.75 39.4224C34.7845 38.8251 35.9541 38.685 37.0328 38.9396L37.722 36.0198C35.9289 35.5966 33.9725 35.8298 32.25 36.8243L33.75 39.4224ZM31.6153 42.3074C31.8871 41.1314 32.6249 40.0719 33.75 39.4224L32.25 36.8243C30.375 37.9068 29.1436 39.6794 28.6924 41.6318L31.6153 42.3074ZM24.0009 45.5C25.8238 45.5 27.5957 45.2728 29.2891 44.8444L28.5534 41.936C27.0986 42.3041 25.5737 42.5 24.0009 42.5V45.5ZM18.7106 44.8439C20.4046 45.2726 22.1772 45.5 24.0009 45.5V42.5C22.4275 42.5 20.902 42.3039 19.4466 41.9356L18.7106 44.8439ZM14.25 39.4224C15.3751 40.0719 16.1129 41.1313 16.3847 42.3072L19.3076 41.6315C18.8563 39.6791 17.625 37.9068 15.75 36.8243L14.25 39.4224ZM10.9681 38.9394C12.0465 38.685 13.2158 38.8253 14.25 39.4224L15.75 36.8243C14.028 35.8301 12.0721 35.5967 10.2794 36.0195L10.9681 38.9394ZM3.69729 31.0886C4.58817 33.6405 5.9458 35.9719 7.6668 37.9808L9.94509 36.0291C8.46278 34.2988 7.29523 32.2928 6.52966 30.0998L3.69729 31.0886ZM6.50089 24C6.50089 25.3987 5.86452 26.6475 4.85989 27.4753L6.76757 29.7906C8.43419 28.4174 9.50089 26.3327 9.50089 24H6.50089ZM4.85989 20.5247C5.86452 21.3525 6.50089 22.6013 6.50089 24H9.50089C9.50089 21.6673 8.43419 19.5826 6.76757 18.2094L4.85989 20.5247ZM7.66818 10.0176C5.94652 12.0269 4.58841 14.3588 3.69729 16.9114L6.52966 17.9002C7.29543 15.7066 8.4634 13.7002 9.94628 11.9696L7.66818 10.0176ZM14.25 8.57596C13.216 9.17295 12.047 9.31324 10.9688 9.0591L10.2805 11.9791C12.0729 12.4016 14.0283 12.1681 15.75 11.174L14.25 8.57596ZM16.3845 5.69215C16.1125 6.86766 15.3748 7.92661 14.25 8.57596L15.75 11.174C17.6244 10.0919 18.8556 8.32019 19.3073 6.36852L16.3845 5.69215ZM24.0009 2.5C22.1771 2.5 20.4043 2.72742 18.7102 3.15621L19.4462 6.0645C20.9017 5.69612 22.4273 5.5 24.0009 5.5V2.5ZM29.2895 3.15568C27.596 2.72724 25.8239 2.5 24.0009 2.5V5.5C25.5738 5.5 27.0988 5.69596 28.5537 6.06405L29.2895 3.15568ZM19.3073 6.36852C19.3385 6.23359 19.3914 6.13842 19.4324 6.08851C19.4677 6.04563 19.4739 6.05749 19.4462 6.0645L18.7102 3.15621C17.3279 3.50606 16.6141 4.69981 16.3845 5.69215L19.3073 6.36852ZM6.76757 18.2094C6.64581 18.1091 6.57503 18.0005 6.54663 17.9279C6.52275 17.8669 6.54033 17.8696 6.52966 17.9002L3.69729 16.9114C3.16527 18.4353 3.98957 19.8076 4.85989 20.5247L6.76757 18.2094ZM10.2794 36.0195C10.145 36.0512 10.0364 36.046 9.9735 36.0313C9.91938 36.0187 9.92682 36.0077 9.94509 36.0291L7.6668 37.9808C8.59289 39.0619 9.97693 39.1732 10.9681 38.9394L10.2794 36.0195ZM19.4466 41.9356C19.4743 41.9426 19.468 41.9545 19.4328 41.9116C19.3917 41.8616 19.3388 41.7664 19.3076 41.6315L16.3847 42.3072C16.6142 43.2998 17.328 44.494 18.7106 44.8439L19.4466 41.9356ZM28.6924 41.6318C28.6612 41.7668 28.6083 41.8621 28.5672 41.912C28.5319 41.9549 28.5257 41.9431 28.5534 41.936L29.2891 44.8444C30.672 44.4946 31.3859 43.3002 31.6153 42.3074L28.6924 41.6318ZM38.0564 36.0294C38.0746 36.0081 38.0821 36.0191 38.028 36.0317C37.965 36.0463 37.8564 36.0515 37.722 36.0198L37.0328 38.9396C38.024 39.1735 39.4083 39.0624 40.3346 37.9812L38.0564 36.0294ZM41.4721 17.9002C41.4614 17.8696 41.479 17.8669 41.4551 17.9279C41.4267 18.0005 41.356 18.1091 41.2342 18.2094L43.1419 20.5247C44.0122 19.8076 44.8365 18.4353 44.3045 16.9114L41.4721 17.9002ZM6.52966 30.0998C6.54033 30.1304 6.52275 30.1331 6.54663 30.0721C6.57503 29.9995 6.64581 29.8909 6.76757 29.7906L4.85989 27.4753C3.98957 28.1924 3.16527 29.5647 3.69729 31.0886L6.52966 30.0998ZM37.7209 11.9788C37.8553 11.9471 37.9639 11.9523 38.0268 11.9669C38.0809 11.9795 38.0735 11.9905 38.0552 11.9692L40.3332 10.0172C39.4071 8.93634 38.0232 8.82513 37.0321 9.05892L37.7209 11.9788ZM9.94628 11.9696C9.92801 11.9909 9.92058 11.9799 9.97468 11.9673C10.0376 11.9526 10.1461 11.9474 10.2805 11.9791L10.9688 9.0591C9.97777 8.82552 8.59414 8.93691 7.66818 10.0176L9.94628 11.9696ZM41.2342 29.7906C41.356 29.8909 41.4267 29.9995 41.4551 30.0721C41.479 30.1331 41.4614 30.1304 41.4721 30.0998L44.3045 31.0886C44.8365 29.5646 44.0122 28.1924 43.1419 27.4753L41.2342 29.7906ZM31.6155 5.69191C31.3859 4.69942 30.6721 3.50545 29.2895 3.15568L28.5537 6.06405C28.526 6.05704 28.5323 6.04518 28.5676 6.08806C28.6086 6.13799 28.6615 6.23318 28.6927 6.36813L31.6155 5.69191Z" fill="#2F3190"/>
</svg>
