<svg width="20" height="20" viewBox="0 0 20 20" fill="none" xmlns="http://www.w3.org/2000/svg">
<circle cx="10" cy="10" r="10" fill="white"/>
<path d="M14.0659 6.99371C14.3588 6.70082 14.3588 6.22594 14.0659 5.93305C13.773 5.64016 13.2981 5.64016 13.0052 5.93305L10 8.93825L6.9948 5.93305C6.7019 5.64016 6.22703 5.64016 5.93414 5.93305C5.64124 6.22594 5.64124 6.70082 5.93414 6.99371L8.93934 9.99892L5.93414 13.0041C5.64124 13.297 5.64124 13.7719 5.93414 14.0648C6.22703 14.3577 6.7019 14.3577 6.9948 14.0648L10 11.0596L13.0052 14.0648C13.2981 14.3577 13.773 14.3577 14.0659 14.0648C14.3588 13.7719 14.3588 13.297 14.0659 13.0041L11.0607 9.99892L14.0659 6.99371Z" fill="#2F3190"/>
</svg>
