<svg width="48" height="24" viewBox="0 0 48 24" fill="none" xmlns="http://www.w3.org/2000/svg">
<mask id="path-1-inside-1_631_15018" fill="white">
<path fill-rule="evenodd" clip-rule="evenodd" d="M12 0C8.68629 0 6 2.68629 6 6L0 12L6 18C6 21.3137 8.68629 24 12 24H42C45.3137 24 48 21.3137 48 18V6C48 2.68629 45.3137 0 42 0H12Z"/>
</mask>
<path fill-rule="evenodd" clip-rule="evenodd" d="M12 0C8.68629 0 6 2.68629 6 6L0 12L6 18C6 21.3137 8.68629 24 12 24H42C45.3137 24 48 21.3137 48 18V6C48 2.68629 45.3137 0 42 0H12Z" fill="#EEF2F5"/>
<path d="M6 6L6.70711 6.70711L7 6.41421V6H6ZM0 12L-0.707106 11.2929L-1.41421 12L-0.707107 12.7071L0 12ZM6 18H7V17.5858L6.70711 17.2929L6 18ZM7 6C7 3.23858 9.23858 1 12 1V-1C8.13401 -1 5 2.13401 5 6H7ZM0.707106 12.7071L6.70711 6.70711L5.29289 5.29289L-0.707106 11.2929L0.707106 12.7071ZM6.70711 17.2929L0.707107 11.2929L-0.707107 12.7071L5.29289 18.7071L6.70711 17.2929ZM12 23C9.23858 23 7 20.7614 7 18H5C5 21.866 8.13401 25 12 25V23ZM42 23H12V25H42V23ZM47 18C47 20.7614 44.7614 23 42 23V25C45.866 25 49 21.866 49 18H47ZM47 6V18H49V6H47ZM42 1C44.7614 1 47 3.23858 47 6H49C49 2.13401 45.866 -1 42 -1V1ZM12 1H42V-1H12V1Z" fill="#D1DAE0" mask="url(#path-1-inside-1_631_15018)"/>
</svg>
