<svg width="21" height="13" viewBox="0 0 21 13" fill="none" xmlns="http://www.w3.org/2000/svg">
<path d="M20.8055 11.1143C20.8055 11.0313 20.7225 11.0313 20.7225 10.9482C20.3904 10.2841 19.6432 9.45383 18.6469 8.54057C18.1488 8.12546 17.8997 7.79336 17.7337 7.62732C17.4846 7.29523 17.4846 7.04616 17.5676 6.71407C17.6507 6.465 17.9827 6.04988 18.5639 5.30267C18.896 4.88756 19.062 4.6385 19.3111 4.38943C20.5564 2.72897 21.1376 1.64966 20.9716 1.15153L20.8886 1.06851C20.8055 0.985488 20.7225 0.902467 20.5564 0.902467C20.3904 0.819444 20.1413 0.819444 19.8923 0.902467H16.7374C16.6544 0.902467 16.6544 0.902467 16.4883 0.902467C16.4053 0.902467 16.3223 0.902467 16.3223 0.902467H16.2393H16.1562L16.0732 0.985483C15.9902 1.06851 15.9902 1.0685 15.9902 1.15153C15.6581 2.06478 15.243 2.81198 14.8279 3.64221C14.5788 4.05733 14.3297 4.47245 14.0807 4.80454C13.8316 5.13663 13.6655 5.3857 13.4995 5.55174C13.3335 5.71779 13.1674 5.80081 13.0844 5.96686C13.0014 6.04988 12.8353 6.13291 12.8353 6.04989C12.7523 6.04989 12.6693 6.04988 12.6693 5.96686C12.5862 5.88384 12.5032 5.80081 12.4202 5.71779C12.3372 5.63476 12.3372 5.46872 12.2542 5.30267C12.2542 5.13663 12.2542 4.97058 12.2542 4.88756C12.2542 4.80453 12.2542 4.55547 12.2542 4.38943C12.2542 4.14036 12.2542 3.97431 12.2542 3.89129C12.2542 3.64222 12.2542 3.31013 12.2542 2.97804C12.2542 2.64595 12.2542 2.39687 12.2542 2.23083C12.2542 2.06478 12.2542 1.81571 12.2542 1.64967C12.2542 1.4006 12.2542 1.23455 12.2542 1.15153C12.2542 1.0685 12.1711 0.902462 12.1711 0.819439C12.0881 0.736416 12.0051 0.653391 11.9221 0.570368C11.839 0.487345 11.673 0.487348 11.59 0.404325C11.1749 0.321302 10.6767 0.238281 10.0956 0.238281C8.76721 0.238281 7.85395 0.321307 7.52186 0.487353C7.35581 0.570375 7.18977 0.653393 7.10675 0.819439C6.9407 0.985485 6.9407 1.06851 7.02372 1.06851C7.43883 1.15153 7.77093 1.31757 7.93698 1.56664L8.02 1.7327C8.10303 1.81572 8.10301 1.98176 8.18603 2.23083C8.26906 2.4799 8.26906 2.72896 8.26906 3.06106C8.26906 3.55919 8.26906 4.05734 8.26906 4.38943C8.26906 4.80454 8.18603 5.0536 8.18603 5.30267C8.18603 5.55174 8.10303 5.71779 8.02 5.80081C7.93698 5.96686 7.93697 6.04989 7.85395 6.04989C7.85395 6.04989 7.85394 6.1329 7.77092 6.1329C7.6879 6.1329 7.60488 6.21593 7.43883 6.21593C7.35581 6.21593 7.18977 6.13291 7.10675 6.04989C6.9407 5.96686 6.77465 5.80082 6.69163 5.63477C6.52559 5.46873 6.35953 5.21965 6.19349 4.88756C6.02744 4.55547 5.77836 4.22338 5.61232 3.72524L5.44629 3.39316C5.36326 3.22711 5.19722 2.89501 5.03117 2.4799C4.86513 2.06478 4.69908 1.7327 4.53303 1.31758C4.45001 1.15154 4.36699 1.06851 4.28397 0.985483H4.20094C4.20094 0.985483 4.11791 0.902467 4.03489 0.902467C3.95186 0.902467 3.86885 0.819439 3.78583 0.819439H0.796998C0.464907 0.819439 0.298863 0.90246 0.21584 0.985483L0.132812 1.06851C0.132812 1.06851 0.132812 1.15153 0.132812 1.23455C0.132812 1.31758 0.132818 1.40059 0.21584 1.56664C0.630955 2.56292 1.12909 3.5592 1.62723 4.55547C2.12537 5.46872 2.62351 6.29896 2.9556 6.88012C3.37071 7.46128 3.7028 8.04244 4.11792 8.54057C4.53303 9.03871 4.78209 9.3708 4.86512 9.53685C5.03116 9.70289 5.11418 9.78591 5.1972 9.86893L5.44629 10.118C5.61233 10.2841 5.8614 10.5331 6.19349 10.7822C6.52558 11.0313 6.94069 11.2803 7.3558 11.5294C7.77092 11.7785 8.26907 11.9445 8.7672 12.1106C9.34837 12.2766 9.8465 12.3596 10.3446 12.2766H11.59C11.839 12.2766 12.0051 12.1936 12.1711 12.0275L12.2542 11.9445C12.2542 11.8615 12.3372 11.8615 12.3372 11.7785C12.3372 11.6954 12.3372 11.6124 12.3372 11.4464C12.3372 11.1143 12.3372 10.8652 12.4202 10.6161C12.5032 10.3671 12.5032 10.201 12.5863 10.035C12.6693 9.86894 12.7523 9.78591 12.8353 9.70289C12.9183 9.61987 13.0014 9.53685 13.0014 9.53685H13.0844C13.2504 9.45382 13.4995 9.53684 13.6656 9.70289C13.9146 9.86894 14.1637 10.118 14.3297 10.3671C14.4958 10.6161 14.7449 10.8652 15.077 11.1973C15.409 11.5294 15.6581 11.7785 15.8242 11.8615L16.0732 12.0275C16.2393 12.1106 16.4053 12.1936 16.6544 12.2766C16.9035 12.3596 17.0695 12.3596 17.2355 12.3596L20.0583 12.2766C20.3074 12.2766 20.5565 12.1936 20.7225 12.1106C20.8885 12.0275 20.9716 11.9445 20.9716 11.7785C20.9716 11.6954 20.9716 11.5294 20.9716 11.4464C20.8055 11.2803 20.8055 11.1973 20.8055 11.1143Z" fill="#9495A9"/>
</svg>
