<svg width="24" height="24" viewBox="0 0 24 24" fill="none" xmlns="http://www.w3.org/2000/svg">
<path d="M4.24414 2.5542H19.7577V20.4657C19.7577 21.2961 18.8043 21.7647 18.1469 21.2575L16.4376 19.939C16.1028 19.6807 15.6418 19.6609 15.2861 19.8896L13.0824 21.3062C12.4236 21.7298 11.5782 21.7298 10.9194 21.3062L8.71572 19.8896C8.36003 19.6609 7.89896 19.6807 7.56416 19.939L5.85494 21.2575C5.19752 21.7647 4.24414 21.2961 4.24414 20.4657V2.5542Z" stroke="#1B1D1F" stroke-width="1.5"/>
<path d="M8.67578 9.20249H12.0001" stroke="#1B1D1F" stroke-width="1.5" stroke-linecap="round" stroke-linejoin="round"/>
<path d="M2.02734 2.55405H21.9733" stroke="#1B1D1F" stroke-width="1.5" stroke-linecap="round" stroke-linejoin="round"/>
<path d="M8.67578 13.6351H12.0001" stroke="#1B1D1F" stroke-width="1.5" stroke-linecap="round" stroke-linejoin="round"/>
<path d="M15.3242 9.20249H15.8783" stroke="#1B1D1F" stroke-width="1.5" stroke-linecap="round" stroke-linejoin="round"/>
<path d="M15.3242 13.6351H15.8783" stroke="#1B1D1F" stroke-width="1.5" stroke-linecap="round" stroke-linejoin="round"/>
</svg>
